<svg width="712" height="158" viewBox="0 0 712 158" fill="none" xmlns="http://www.w3.org/2000/svg">
<path d="M20.8567 3V1.5H19.3567H3H1.5V3V154.893V156.393H3H19.3567H20.8567V154.893V3Z" fill="#E5E5E5" stroke="#E5E5E5" stroke-width="3"/>
<path d="M51.909 156.393H53.409V154.893V53.9428L92.261 155.429L92.6299 156.393H93.6618H111.202H113.382L112.603 154.357L96.2362 111.579L118.257 53.9561V154.893V156.393H119.757H136.168H137.668V154.893V3V1.5H136.168H119.757H118.628H117.595L117.227 2.46407L85.859 84.463L54.4396 2.4633L54.0705 1.5H53.0389H51.909H35.4983H33.9983V3V154.893V156.393H35.4983H51.909Z" fill="#E5E5E5" stroke="#E5E5E5" stroke-width="3"/>
<path d="M168.72 156.393H170.22V154.893V53.9428L209.072 155.429L209.441 156.393H210.473H228.013H230.193L229.414 154.357L213.047 111.579L235.068 53.9561V154.893V156.393H236.568H252.979H254.479V154.893V3V1.5H252.979H236.568H235.439H234.406L234.038 2.46407L202.67 84.463L171.251 2.4633L170.882 1.5H169.85H168.72H152.309H150.809V3V154.893V156.393H152.309H168.72Z" fill="#E5E5E5" stroke="#E5E5E5" stroke-width="3"/>
<path d="M267.621 154.893V156.393H269.121H281.765H285.477H323.572H325.072V154.893V138.536V137.036H323.572H286.977V75.8688L299.321 88.2122L299.76 88.6516H300.381H323.572H327.197L324.632 86.0902L286.977 48.4893V20.9106H323.572H325.072V19.4106V3V1.5H323.572H285.477H281.765H269.121H267.621V3V154.893Z" fill="#E5E5E5" stroke="#E5E5E5" stroke-width="3"/>
<path d="M388.812 88.759H396.155H401.59H412.512H414.012V87.259V70.9023V31.6241V31.0028L413.573 30.5635L384.948 1.93933L384.509 1.5H383.888H356.07H348.86H348.376H339.714H338.214V3V155V156.5H339.714H356.07H357.57V155V88.759H368.059L393.624 155.536L393.993 156.5H395.025H412.566H414.746L413.967 154.464L388.812 88.759ZM394.655 69.4023H357.57V20.9106H376.487L394.655 39.0788V69.4023Z" fill="#E5E5E5" stroke="#E5E5E5" stroke-width="3"/>
<path d="M482.735 137.036H428.708H427.208V138.536V154.893V156.393H428.708H484.235H500.591H502.091V154.893V138.536V126.483V106.36V103.347V102.726L501.653 102.287L446.618 47.199V20.9106H464.566L476.394 32.739L476.834 33.1783H477.455H500.591H504.208L501.653 30.6187L473.029 1.94034L472.589 1.5H471.967H429.568H428.708H427.208V3V31.4632V51.3174V54.5994V55.2208L427.647 55.6601L482.735 110.748V137.036Z" fill="#E5E5E5" stroke="#E5E5E5" stroke-width="3"/>
<path d="M534.59 3V1.5H533.09H516.733H515.233V3V154.893V156.393H516.733H533.09H534.59V154.893V3Z" fill="#E5E5E5" stroke="#E5E5E5" stroke-width="3"/>
<path d="M567.483 2.67395L567.221 1.5H566.018H549.231H547.36L547.767 3.32622L581.611 155.219L581.872 156.393H583.075H583.505H599.862H600.292H601.495L601.756 155.219L635.6 3.32622L636.007 1.5H634.136H617.349H616.146L615.885 2.67395L591.684 111.35L567.483 2.67395Z" fill="#E5E5E5" stroke="#E5E5E5" stroke-width="3"/>
<path d="M648.778 154.893V156.393H650.278H662.922H666.635H704.729H706.229V154.893V138.536V137.036H704.729H668.135V75.8688L680.478 88.2122L680.917 88.6516H681.539H704.729H708.354L705.789 86.0902L668.135 48.4893V20.9106H704.729H706.229V19.4106V3V1.5H704.729H666.635H662.922H650.278H648.778V3V154.893Z" fill="#E5E5E5" stroke="#E5E5E5" stroke-width="3"/>
</svg>
