<svg width="720" height="148" viewBox="0 0 720 148" fill="none" xmlns="http://www.w3.org/2000/svg">
<path d="M19.1151 145.882H21.0963V143.901V54.1641L55.7215 144.609L56.2088 145.882H57.5717H73.7275H76.6067L75.5778 143.193L60.5847 104.007L79.626 54.1816V143.901V145.882H81.6071H96.7221H98.7032V143.901V4V2.01887H96.7221H81.6071H80.5664H79.2032L78.7161 3.29217L50.3844 77.3548L22.0058 3.29115L21.5183 2.01887H20.1558H19.1151H4H2.01887V4V143.901V145.882H4H19.1151Z" fill="#E5E5E5" stroke="#E5E5E5" stroke-width="3.96226"/>
<path d="M109.608 143.901V145.882H111.589H123.235H126.655H161.742H163.723V143.901V128.835V126.854H161.742H128.636V72.5634L138.981 82.9089L139.562 83.4892H140.382H161.742H166.529L163.142 80.1062L128.636 45.6494V21.0961H161.742H163.723V19.115V4V2.01887H161.742H126.655H123.235H111.589H109.608V4V143.901Z" fill="#E5E5E5" stroke="#E5E5E5" stroke-width="3.96226"/>
<path d="M242.273 21.0961H244.254V19.115V4V2.01887H242.273H176.609H174.628V4V19.115V21.0961H176.609H199.902V143.901V145.882H201.883H216.998H218.979V143.901V21.0961H242.273Z" fill="#E5E5E5" stroke="#E5E5E5" stroke-width="3.96226"/>
<path d="M274.32 144.148L283.181 73.7278L310.565 101.112L315.981 144.148L316.2 145.882H317.947H333.161H335.407L335.127 143.654L317.534 3.75281L317.316 2.01887H315.568H310.761H300.354H289.897H278.301H274.733H272.985L272.767 3.75281L255.174 143.654L254.894 145.882H257.14H272.354H274.102L274.32 144.148ZM301.408 65.0418L300.828 64.4615H300.007H284.363L289.812 21.0961H300.49L306.686 70.3194L301.408 65.0418Z" fill="#E5E5E5" stroke="#E5E5E5" stroke-width="3.96226"/>
<path d="M365.075 4V2.01887H363.094H348.029H346.047V4V117.536V118.357L346.628 118.937L372.992 145.302L373.573 145.882H374.393H374.424H374.455H374.486H374.517H374.549H374.58H374.611H374.642H374.673H374.704H374.735H374.766H374.797H374.828H374.859H374.89H374.922H374.953H374.984H375.015H375.046H375.077H375.108H375.139H375.17H375.201H375.233H375.264H375.295H375.326H375.357H375.388H375.419H375.45H375.481H375.512H375.544H375.575H375.606H375.637H375.668H375.699H375.73H375.761H375.792H375.824H375.855H375.886H375.917H375.948H375.979H376.01H376.041H376.073H376.104H376.135H376.166H376.197H376.228H376.259H376.29H376.322H376.353H376.384H376.415H376.446H376.477H376.508H376.54H376.571H376.602H376.633H376.664H376.695H376.726H376.758H376.789H376.82H376.851H376.882H376.913H376.944H376.976H377.007H377.038H377.069H377.1H377.131H377.162H377.194H377.225H377.256H377.287H377.318H377.349H377.381H377.412H377.443H377.474H377.505H377.536H377.568H377.599H377.63H377.661H377.692H377.723H377.754H377.786H377.817H377.848H377.879H377.91H377.942H377.973H378.004H378.035H378.066H378.097H378.129H378.16H378.191H378.222H378.253H378.284H378.316H378.347H378.378H378.409H378.44H378.472H378.503H378.534H378.565H378.596H378.627H378.659H378.69H378.721H378.752H378.783H378.815H378.846H378.877H378.908H378.939H378.97H379.002H379.033H379.064H379.095H379.126H379.158H379.189H379.22H379.251H379.282H379.314H379.345H379.376H379.407H379.438H379.47H379.501H379.532H379.563H379.594H379.626H379.657H379.688H379.719H379.75H379.782H379.813H379.844H379.875H379.906H379.938H379.969H380H380.031H380.062H380.094H380.125H380.156H380.187H380.218H380.25H380.281H380.312H380.343H380.374H380.406H380.437H380.468H380.499H380.53H380.562H380.593H380.624H380.655H380.687H380.718H380.749H380.78H380.811H380.843H380.874H380.905H380.936H380.967H380.999H381.03H381.061H381.092H381.123H381.155H381.186H381.217H381.248H381.28H381.311H381.342H381.373H381.404H381.436H381.467H381.498H381.529H381.56H381.592H381.623H381.654H381.685H381.717H381.748H381.779H381.81H381.841H381.873H381.904H381.935H381.966H381.997H382.029H382.06H382.091H382.122H382.154H382.185H382.216H382.247H382.278H382.31H382.341H382.372H382.403H382.434H382.466H382.497H382.528H382.559H382.591H382.622H382.653H382.684H382.715H382.747H382.778H382.809H382.84H382.871H382.903H382.934H382.965H382.996H383.028H383.059H383.09H383.121H383.152H383.184H383.215H383.246H383.277H383.309H383.34H383.371H383.402H383.433H383.465H383.496H383.527H383.558H383.589H383.621H383.652H383.683H383.714H383.745H383.777H383.808H383.839H383.87H383.902H383.933H383.964H383.995H384.026H384.058H384.089H384.12H384.151H384.182H384.214H384.245H384.276H384.307H384.338H384.37H384.401H384.432H384.463H384.494H384.526H384.557H384.588H384.619H384.651H384.682H384.713H384.744H384.775H384.807H384.838H384.869H384.9H384.931H384.963H384.994H385.025H385.056H385.087H385.119H385.15H385.181H385.212H385.243H385.275H385.306H385.337H385.368H385.399H385.431H385.462H385.493H385.524H385.555H385.586H385.618H385.649H385.68H385.711H385.742H385.774H385.805H385.836H385.867H385.898H385.93H385.961H385.992H386.023H386.054H386.085H386.117H386.148H386.179H386.21H386.241H386.273H386.304H386.335H386.366H386.397H386.428H386.46H386.491H386.522H386.553H386.584H386.616H386.647H386.678H386.709H386.74H386.771H386.803H386.834H386.865H386.896H386.927H386.958H386.99H387.021H387.052H387.083H387.114H387.145H387.177H387.208H387.239H387.27H387.301H387.332H387.364H387.395H387.426H387.457H387.488H387.519H387.55H387.582H387.613H387.644H387.675H387.706H387.737H387.769H387.8H387.831H387.862H387.893H387.924H387.955H387.987H388.018H388.049H388.08H388.111H388.142H388.173H388.205H388.236H388.267H388.298H388.329H388.36H388.391H388.423H388.454H388.485H388.516H388.547H388.578H388.609H388.64H388.672H388.703H388.734H388.765H388.796H388.827H388.858H388.889H388.921H388.952H388.983H389.014H389.045H389.076H389.107H389.138H389.169H389.201H389.232H389.263H389.294H389.325H389.356H389.387H389.418H389.449H389.48H389.512H389.543H389.574H389.605H389.636H389.667H389.698H389.729H389.76H389.791H389.823H389.854H389.885H389.916H389.947H389.978H390.009H390.04H390.071H390.102H390.133H390.164H390.196H390.227H390.258H390.289H390.32H390.351H391.172L391.752 145.302L418.116 118.937L418.696 118.357V117.536V4V2.01887H416.715H401.65H399.669V4V110.472L383.286 126.854H381.458L365.075 110.472V4Z" fill="#E5E5E5" stroke="#E5E5E5" stroke-width="3.96226"/>
<path d="M429.601 143.901V145.882H431.583H443.229H446.648H481.735H483.716V143.901V128.835V126.854H481.735H448.629V72.5634L458.975 82.9089L459.555 83.4892H460.375H481.735H486.523L483.135 80.1062L448.629 45.6494V21.0961H481.735H483.716V19.115V4V2.01887H481.735H446.648H443.229H431.583H429.601V4V143.901Z" fill="#E5E5E5" stroke="#E5E5E5" stroke-width="3.96226"/>
<path d="M542.696 83.5881H548.588H553.593H563.653H565.634V81.6069V66.5416V30.3643V29.5437L565.054 28.9635L538.689 2.59912L538.109 2.01887H537.289H511.667H505.027H504.581H496.602H494.621V4V144V145.981H496.602H511.667H513.649V144V83.5881H522.297L545.697 144.708L546.184 145.981H547.547H563.703H566.583L565.553 143.292L542.696 83.5881ZM546.607 64.5604H513.649V21.0961H530.224L546.607 37.4789V64.5604Z" fill="#E5E5E5" stroke="#E5E5E5" stroke-width="3.96226"/>
<path d="M627.733 126.854H578.57H576.589V128.835V143.901V145.882H578.57H629.714H644.779H646.76V143.901V128.835V117.735V99.2001V96.4249V95.6049L646.181 95.0247L595.666 44.4615V21.0961H611.35L622.069 31.8151L622.649 32.3954H623.469H644.779H649.556L646.181 29.0147L619.817 2.60045L619.236 2.01887H618.414H579.363H578.57H576.589V4V30.2161V48.5029V51.5258V52.3464L577.169 52.9267L627.733 103.49V126.854Z" fill="#E5E5E5" stroke="#E5E5E5" stroke-width="3.96226"/>
<path d="M657.665 143.901V145.882H659.646H671.292H674.712H709.798H711.779V143.901V128.835V126.854H709.798H676.693V72.5634L687.038 82.9089L687.618 83.4892H688.439H709.798H714.586L711.198 80.1062L676.693 45.6494V21.0961H709.798H711.779V19.115V4V2.01887H709.798H674.712H671.292H659.646H657.665V4V143.901Z" fill="#E5E5E5" stroke="#E5E5E5" stroke-width="3.96226"/>
</svg>
